<svg width="166" height="21" viewBox="0 0 166 21" fill="none" xmlns="http://www.w3.org/2000/svg">
<path d="M142.736 9.26281L139.764 8.21172C138.954 7.91975 138.353 7.56938 137.963 7.13143C137.573 6.69347 137.363 6.10953 137.363 5.3796C137.363 4.56208 137.663 3.89055 138.233 3.365C138.804 2.83946 139.584 2.57668 140.485 2.57668C141.505 2.57668 142.316 2.86865 142.916 3.4526C143.516 4.03653 143.817 4.79566 143.817 5.70077V5.99274H146.578V5.70077C146.578 4.62047 146.338 3.65697 145.828 2.81026C145.318 1.96354 144.597 1.3212 143.697 0.854048C142.766 0.386902 141.715 0.15332 140.515 0.15332C139.374 0.15332 138.323 0.386902 137.423 0.854048C136.522 1.3212 135.832 1.96354 135.322 2.75186C134.811 3.56938 134.571 4.50369 134.571 5.52559C134.571 6.69347 134.901 7.71537 135.532 8.62047C136.162 9.52559 137.243 10.2263 138.744 10.7519L141.385 11.657C142.256 11.9781 142.886 12.3869 143.276 12.8541C143.697 13.3212 143.907 13.9635 143.907 14.7519C143.907 15.3066 143.757 15.8322 143.486 16.2701C143.216 16.7373 142.826 17.0876 142.316 17.3504C141.805 17.6132 141.265 17.73 140.665 17.73C139.674 17.73 138.864 17.438 138.233 16.8541C137.603 16.2701 137.303 15.511 137.303 14.5475V14.2263H134.571V14.4891C134.571 15.5986 134.811 16.5621 135.322 17.438C135.832 18.2847 136.552 18.9562 137.483 19.4234C138.413 19.8905 139.464 20.1241 140.665 20.1241C141.865 20.1241 142.916 19.8905 143.817 19.4234C144.747 18.9562 145.438 18.2847 145.948 17.438C146.458 16.5913 146.698 15.5986 146.698 14.5183C146.698 13.3212 146.398 12.2409 145.768 11.3358C145.167 10.4891 144.147 9.78836 142.736 9.26281Z" fill="white"/>
<path d="M5.16311 8.21172L8.13489 9.26281C9.57578 9.78836 10.5964 10.4891 11.1967 11.365C11.8271 12.2701 12.1273 13.3504 12.1273 14.5475C12.1273 15.6278 11.8872 16.6205 11.3769 17.4672C10.8665 18.3139 10.1761 18.9854 9.24557 19.4526C8.34502 19.9197 7.29439 20.1533 6.09367 20.1533C4.89294 20.1533 3.84231 19.9197 2.91176 19.4526C1.98119 18.9854 1.26076 18.3139 0.750452 17.4672C0.240141 16.5913 0 15.6278 0 14.5183V14.2555H2.73164V14.5767C2.73164 15.5402 3.03182 16.2993 3.66221 16.8832C4.29258 17.4672 5.10307 17.7592 6.09367 17.7592C6.69403 17.7592 7.23435 17.6424 7.74466 17.3796C8.25497 17.1168 8.6452 16.7665 8.91537 16.2993C9.18553 15.8614 9.33562 15.3358 9.33562 14.7811C9.33562 13.9927 9.15552 13.3504 8.73525 12.8832C8.34502 12.4161 7.71465 12.0073 6.84412 11.6862L4.20253 10.7811C2.70163 10.2555 1.62098 9.52559 0.960582 8.64967C0.330192 7.74456 0 6.72266 0 5.55478C0 4.53288 0.240141 3.59858 0.750452 2.78106C1.26076 1.99274 1.95118 1.3504 2.85172 0.883247C3.75226 0.416092 4.80289 0.182519 5.94358 0.182519C7.1443 0.182519 8.19493 0.416092 9.1255 0.854048C10.026 1.3212 10.7465 1.96354 11.2568 2.81026C11.7671 3.65697 12.0072 4.62047 12.0072 5.70077V5.99274H9.21555V5.70077C9.21555 4.79566 8.91537 4.03653 8.31501 3.4526C7.71465 2.86865 6.90416 2.57668 5.88354 2.57668C4.98299 2.57668 4.20253 2.83946 3.63218 3.365C3.06185 3.89055 2.76167 4.56208 2.76167 5.3796C2.76167 6.10953 2.9718 6.69347 3.36203 7.13143C3.75226 7.56938 4.35262 7.91975 5.16311 8.21172Z" fill="white"/>
<path d="M113.829 17.5548L113.799 19.9197H116.2L122.654 2.83946V0.47449H120.252L113.829 17.5548Z" fill="white"/>
<path d="M128.417 13.8759L127.487 11.4234H122.714L121.783 13.8759H125.145L127.427 19.9197H129.828L129.798 17.5548L128.417 13.8759Z" fill="white"/>
<path fill-rule="evenodd" clip-rule="evenodd" d="M27.9769 1.23362C27.0463 0.737262 25.9656 0.47449 24.7349 0.47449H18.8514V19.9197H21.613V12.3869H24.6749C25.9056 12.3869 27.0163 12.1533 27.9468 11.657C28.9074 11.1606 29.6279 10.4599 30.1682 9.55478C30.6785 8.64967 30.9486 7.62778 30.9486 6.45989C30.9486 5.29201 30.6785 4.27011 30.1682 3.365C29.6279 2.45989 28.9074 1.72996 27.9769 1.23362ZM27.1063 9.02924C26.4459 9.64237 25.5454 9.96354 24.4047 9.96354H21.613V2.89784H24.4047C25.5454 2.89784 26.4459 3.21901 27.1063 3.86135C27.7667 4.50369 28.0969 5.3504 28.0969 6.45989C28.0969 7.54018 27.7667 8.3869 27.1063 9.02924Z" fill="white"/>
<path d="M37.7327 19.9197V0.47449H49.74V2.89784H40.4944V8.94164H47.9089V11.3942H40.4944V17.4964H49.74V19.9197H37.7327Z" fill="white"/>
<path d="M82.5797 8.94164V8.97084H79.638V0.47449H76.8763V19.9197H79.638V11.4234H82.6698L87.3226 19.9197H89.7541V18.6643L84.8911 10.1095L89.7541 1.72996V0.47449H87.3226L82.5797 8.94164Z" fill="white"/>
<path d="M96.1479 19.9197V0.47449H108.155V2.89784H98.9096V8.94164H106.324V11.3942H98.9096V17.4964H108.155V19.9197H96.1479Z" fill="white"/>
<path d="M159.696 8.56208L163.539 0.47449H166V1.70077L160.867 12.0073V19.9197H158.105V12.0657L152.942 1.67157V0.47449H155.404L159.246 8.56208H159.696Z" fill="white"/>
<path d="M55.2933 17.5548V19.9197H57.6948L64.1186 2.83946V0.47449H61.7472L55.2933 17.5548Z" fill="white"/>
<path d="M68.9815 11.4234L69.9121 13.8759L71.2929 17.5548V19.9197H68.9215L66.6401 13.8759H63.2781L64.2087 11.4234H68.9815Z" fill="white"/>
</svg>
